<svg xmlns="http://www.w3.org/2000/svg" width="165" height="182" fill="none"><g clip-path="url(#a)"><rect width="164" height="182" x=".087" fill="#F6A560" rx="8"/><path fill="#fff" d="M32.471 153.288c1.376 0 2.592-.288 3.648-.864a6.439 6.439 0 0 0 2.52-2.376c.608-1.008.912-2.152.912-3.432V135.12h-3.264v11.328c0 .752-.168 1.424-.504 2.016a3.56 3.56 0 0 1-1.344 1.368c-.56.32-1.216.48-1.968.48-.736 0-1.392-.16-1.968-.48a3.74 3.74 0 0 1-1.368-1.368c-.32-.592-.48-1.264-.48-2.016V135.12h-3.264v11.496c0 1.28.304 2.424.912 3.432a6.483 6.483 0 0 0 2.496 2.376c1.072.576 2.296.864 3.672.864ZM42.81 153h3.264v-17.88H42.81V153Zm5.335.96H51.6l7.968-19.8h-3.432l-7.992 19.8Zm20.396-.672c1.377 0 2.593-.288 3.648-.864a6.439 6.439 0 0 0 2.52-2.376c.608-1.008.912-2.152.912-3.432V135.12h-3.263v11.328c0 .752-.169 1.424-.505 2.016a3.56 3.56 0 0 1-1.343 1.368c-.56.32-1.217.48-1.969.48-.736 0-1.391-.16-1.968-.48a3.74 3.74 0 0 1-1.367-1.368c-.32-.592-.48-1.264-.48-2.016V135.12h-3.264v11.496c0 1.28.303 2.424.911 3.432a6.483 6.483 0 0 0 2.497 2.376c1.072.576 2.295.864 3.671.864Zm8.875-.288h3.744l3.936-6.048L89.008 153h3.744l-5.832-9 5.784-8.88H88.96l-3.864 5.952-3.888-5.952h-3.744l5.808 8.88-5.856 9Z"/><circle cx="124" cy="40" r="14" stroke="#030303" stroke-width="4"/><path fill="#EB7565" d="M76 24h32v32H76z"/><path fill="#030303" d="M76 56h4v4h-4zM90 56h4v4h-4zM104 56h4v4h-4zM76 70h4v4h-4zM90 70h4v4h-4zM104 70h4v4h-4zM76 84h4v4h-4zM90 84h4v4h-4zM104 84h4v4h-4z"/><path fill="#FFF7F0" fill-rule="evenodd" d="m108 56 32 32V56h-32Z" clip-rule="evenodd"/></g><defs><clipPath id="a"><path fill="#fff" d="M.087 0h164v182h-164z"/></clipPath></defs></svg>