<svg xmlns="http://www.w3.org/2000/svg" width="165" height="182" fill="none"><g clip-path="url(#a)"><rect width="164" height="182" x=".131" fill="#F39E9E" rx="8"/><path fill="#fff" d="M24.163 153h3.528l1.296-3.84h6.912L37.17 153h3.552l-6.168-17.88H30.33L24.163 153Zm5.76-6.72 2.52-7.536 2.52 7.536h-5.04Zm12.526 11.52h3.144v-6.048c.48.496 1.064.88 1.752 1.152a6.35 6.35 0 0 0 2.232.384c1.264 0 2.392-.296 3.384-.888a6.641 6.641 0 0 0 2.352-2.448c.576-1.04.864-2.2.864-3.48 0-1.28-.288-2.432-.864-3.456a6.408 6.408 0 0 0-2.352-2.448c-.992-.608-2.112-.912-3.36-.912-.896 0-1.704.16-2.424.48-.72.32-1.312.768-1.776 1.344v-1.536h-2.952V157.8Zm6.768-7.392a3.569 3.569 0 0 1-1.872-.504 3.626 3.626 0 0 1-1.296-1.392c-.304-.592-.456-1.272-.456-2.04s.152-1.448.456-2.04a3.626 3.626 0 0 1 1.296-1.392 3.569 3.569 0 0 1 1.872-.504c.72 0 1.352.176 1.896.528.56.336 1 .8 1.32 1.392.32.592.48 1.264.48 2.016s-.16 1.432-.48 2.04a3.567 3.567 0 0 1-1.32 1.392c-.544.336-1.176.504-1.896.504Zm9.357 7.392h3.144v-6.048c.48.496 1.064.88 1.752 1.152a6.35 6.35 0 0 0 2.232.384c1.264 0 2.392-.296 3.384-.888a6.641 6.641 0 0 0 2.352-2.448c.576-1.04.864-2.2.864-3.48 0-1.28-.288-2.432-.864-3.456a6.408 6.408 0 0 0-2.352-2.448c-.992-.608-2.112-.912-3.36-.912-.896 0-1.704.16-2.424.48-.72.32-1.312.768-1.776 1.344v-1.536h-2.952V157.8Zm6.768-7.392a3.569 3.569 0 0 1-1.872-.504 3.626 3.626 0 0 1-1.296-1.392c-.304-.592-.456-1.272-.456-2.04s.152-1.448.456-2.04a3.626 3.626 0 0 1 1.296-1.392 3.569 3.569 0 0 1 1.872-.504c.72 0 1.352.176 1.896.528.56.336 1 .8 1.32 1.392.32.592.48 1.264.48 2.016s-.16 1.432-.48 2.04a3.567 3.567 0 0 1-1.32 1.392c-.544.336-1.176.504-1.896.504Zm14.325 2.88c.992 0 1.856-.168 2.592-.504.736-.336 1.312-.8 1.728-1.392.416-.608.624-1.304.624-2.088 0-.912-.288-1.696-.864-2.352-.576-.656-1.408-1.136-2.496-1.44l-2.088-.624c-.448-.128-.816-.296-1.104-.504a1.007 1.007 0 0 1-.432-.864c0-.384.152-.696.456-.936.304-.24.72-.36 1.248-.36a3.13 3.13 0 0 1 1.776.528c.544.352.92.824 1.128 1.416l2.4-1.128a4.879 4.879 0 0 0-2.016-2.472c-.944-.608-2.032-.912-3.264-.912-.944 0-1.784.168-2.52.504-.72.336-1.288.808-1.704 1.416-.4.592-.6 1.288-.6 2.088 0 .896.28 1.672.84 2.328.576.656 1.416 1.144 2.52 1.464l2.136.6c.416.112.768.28 1.056.504a.99.99 0 0 1 .456.864c0 .432-.176.776-.528 1.032-.336.24-.784.36-1.344.36-.736 0-1.4-.208-1.992-.624-.592-.416-1.064-.992-1.416-1.728l-2.352 1.128c.384 1.12 1.088 2.016 2.112 2.688 1.04.672 2.256 1.008 3.648 1.008Z"/><rect width="64" height="32" x="76" y="56" fill="#552049" rx="16"/><circle cx="124" cy="72" r="14" stroke="#FFF7F0" stroke-width="4"/><path fill="#030303" d="M76 38h4v4h-4zM80 38h4v4h-4zM104 38h4v4h-4z"/><path fill="#755CDE" fill-rule="evenodd" d="m108 24 32 32V24h-32Z" clip-rule="evenodd"/><path fill="#030303" d="M108 38h4v4h-4zM132 38h4v4h-4zM136 38h4v4h-4z"/></g><defs><clipPath id="a"><path fill="#fff" d="M.131 0h164v182h-164z"/></clipPath></defs></svg>