<svg xmlns="http://www.w3.org/2000/svg" width="354" height="182" fill="none"><g clip-path="url(#a)"><rect width="354" height="182" fill="#61C4B7" rx="8"/><path fill="#EB7565" d="M202 24h64v64h-64z"/><circle cx="186" cy="40" r="14" stroke="#030303" stroke-width="4"/><circle cx="234" cy="56" r="14" stroke="#FFF7F0" stroke-width="4"/><path fill="#030303" d="M298 56h4v4h-4zM312 56h4v4h-4zM326 56h4v4h-4zM298 80h4v4h-4zM312 80h4v4h-4zM326 80h4v4h-4zM298 84h4v4h-4zM312 84h4v4h-4zM326 84h4v4h-4zM298 24h4v4h-4zM312 24h4v4h-4zM326 24h4v4h-4zM298 28h4v4h-4zM312 28h4v4h-4zM326 28h4v4h-4zM298 52h4v4h-4zM312 52h4v4h-4zM326 52h4v4h-4z"/><path fill="#FFF7F0" fill-rule="evenodd" d="m266 56 32 32V56h-32Z" clip-rule="evenodd"/><path fill="#552049" fill-rule="evenodd" d="m266 56 32 32V56h-32Z" clip-rule="evenodd"/><path fill="#F39E9E" fill-rule="evenodd" d="m202 88-32-32v32h32Z" clip-rule="evenodd"/><path fill="#FFF7F0" fill-rule="evenodd" d="m266 56 32-32v32h-32Z" clip-rule="evenodd"/><path fill="#fff" d="M25.588 153h3.264v-6.6h3.408c1.216 0 2.288-.216 3.216-.648a5.152 5.152 0 0 0 2.184-1.944c.544-.848.816-1.864.816-3.048 0-1.216-.264-2.24-.792-3.072-.528-.832-1.264-1.464-2.208-1.896-.928-.448-2-.672-3.216-.672h-6.672V153Zm3.264-9.48V138h3.456c.88 0 1.584.248 2.112.744s.792 1.168.792 2.016c0 .832-.264 1.504-.792 2.016-.528.496-1.232.744-2.112.744h-3.456ZM40.886 153h3.145v-7.656c0-.848.248-1.528.744-2.04.495-.512 1.128-.768 1.895-.768.768 0 1.4.256 1.896.768.496.496.744 1.176.744 2.04V153h3.145v-8.4c0-.976-.209-1.832-.624-2.568a4.396 4.396 0 0 0-1.753-1.752c-.736-.416-1.584-.624-2.544-.624-.752 0-1.431.136-2.04.408a3.312 3.312 0 0 0-1.463 1.176v-6.408h-3.145V153Zm20.611.288c1.264 0 2.416-.288 3.456-.864A6.84 6.84 0 0 0 67.45 150c.624-1.04.936-2.216.936-3.528 0-1.312-.312-2.48-.936-3.504a6.655 6.655 0 0 0-2.472-2.424c-1.04-.592-2.2-.888-3.48-.888-1.296 0-2.464.296-3.504.888a6.84 6.84 0 0 0-2.496 2.424c-.608 1.024-.912 2.192-.912 3.504 0 1.312.304 2.48.912 3.504a6.84 6.84 0 0 0 2.496 2.424c1.056.592 2.224.888 3.504.888Zm0-2.88c-.704 0-1.336-.168-1.896-.504a3.626 3.626 0 0 1-1.296-1.392c-.304-.608-.456-1.288-.456-2.04s.152-1.424.456-2.016a3.626 3.626 0 0 1 1.296-1.392 3.488 3.488 0 0 1 1.896-.528c.704 0 1.32.176 1.848.528.544.336.968.8 1.272 1.392.32.592.48 1.264.48 2.016s-.16 1.432-.48 2.04a3.453 3.453 0 0 1-1.272 1.392c-.528.336-1.144.504-1.848.504Zm14.99 2.736c.528 0 1.048-.04 1.56-.12v-2.712a5.415 5.415 0 0 1-.84.072c-.768 0-1.328-.176-1.68-.528-.352-.352-.528-.856-.528-1.512v-5.592h3v-2.808h-3v-2.976h-3.144v1.008c0 .64-.176 1.128-.528 1.464-.352.336-.848.504-1.488.504h-.24v2.808h2.256v5.76c0 1.456.4 2.592 1.2 3.408.816.816 1.96 1.224 3.432 1.224Zm10.229.144c1.264 0 2.416-.288 3.456-.864A6.84 6.84 0 0 0 92.668 150c.624-1.04.936-2.216.936-3.528 0-1.312-.312-2.48-.936-3.504a6.655 6.655 0 0 0-2.472-2.424c-1.04-.592-2.2-.888-3.48-.888-1.296 0-2.464.296-3.504.888a6.84 6.84 0 0 0-2.496 2.424c-.608 1.024-.912 2.192-.912 3.504 0 1.312.304 2.48.912 3.504a6.84 6.84 0 0 0 2.496 2.424c1.056.592 2.224.888 3.504.888Zm0-2.88c-.704 0-1.336-.168-1.896-.504a3.626 3.626 0 0 1-1.296-1.392c-.304-.608-.456-1.288-.456-2.04s.152-1.424.456-2.016a3.626 3.626 0 0 1 1.296-1.392 3.488 3.488 0 0 1 1.896-.528c.704 0 1.32.176 1.848.528.544.336.968.8 1.272 1.392.32.592.48 1.264.48 2.016s-.16 1.432-.48 2.04a3.453 3.453 0 0 1-1.272 1.392c-.528.336-1.144.504-1.848.504Zm15.608 7.872c1.248 0 2.352-.256 3.312-.768a5.743 5.743 0 0 0 2.256-2.112c.544-.896.816-1.912.816-3.048v-12.408h-2.976v1.512c-.992-1.2-2.328-1.8-4.008-1.8-1.2 0-2.272.28-3.216.84a5.927 5.927 0 0 0-2.232 2.256c-.544.96-.816 2.056-.816 3.288 0 1.216.272 2.312.816 3.288a6.002 6.002 0 0 0 2.256 2.304c.96.56 2.048.84 3.264.84 1.584 0 2.84-.512 3.768-1.536v1.416c0 .96-.304 1.704-.912 2.232-.608.544-1.384.816-2.328.816-.832 0-1.536-.192-2.112-.576-.56-.368-.936-.856-1.128-1.464l-2.928 1.104c.416 1.152 1.176 2.072 2.28 2.76 1.12.704 2.416 1.056 3.888 1.056Zm-.144-8.712c-1.008 0-1.84-.328-2.496-.984-.64-.672-.96-1.512-.96-2.52 0-.672.144-1.272.432-1.8a3.29 3.29 0 0 1 1.248-1.272 3.495 3.495 0 0 1 1.776-.456c.992 0 1.8.336 2.424 1.008.64.656.96 1.496.96 2.52s-.32 1.864-.96 2.52c-.624.656-1.432.984-2.424.984Zm9.464 3.432h3.144v-7.272c0-.992.272-1.76.816-2.304.56-.56 1.28-.84 2.16-.84h1.128V139.8h-.768c-.8 0-1.504.144-2.112.432-.608.288-1.08.808-1.416 1.56v-1.848h-2.952V153Zm12.937.288c1.696 0 3.056-.56 4.08-1.68V153h2.976v-8.688c0-.912-.232-1.72-.696-2.424-.464-.704-1.104-1.248-1.92-1.632-.8-.4-1.736-.6-2.808-.6-1.312 0-2.48.312-3.504.936-1.024.624-1.728 1.448-2.112 2.472l2.568 1.248a3.083 3.083 0 0 1 1.128-1.416c.512-.368 1.112-.552 1.8-.552.72 0 1.296.192 1.728.576.448.368.672.832.672 1.392v.432l-3.888.624c-1.536.256-2.672.744-3.408 1.464-.736.72-1.104 1.624-1.104 2.712 0 1.152.408 2.064 1.224 2.736.816.672 1.904 1.008 3.264 1.008Zm-1.224-3.864c0-.912.616-1.488 1.848-1.728l3.288-.552v.528c0 .896-.312 1.656-.936 2.28-.608.624-1.408.936-2.4.936-.528 0-.96-.128-1.296-.384-.336-.272-.504-.632-.504-1.08Zm11.186 8.376h3.144v-6.048c.48.496 1.064.88 1.752 1.152a6.35 6.35 0 0 0 2.232.384c1.264 0 2.392-.296 3.384-.888a6.641 6.641 0 0 0 2.352-2.448c.576-1.04.864-2.2.864-3.48 0-1.28-.288-2.432-.864-3.456a6.408 6.408 0 0 0-2.352-2.448c-.992-.608-2.112-.912-3.36-.912-.896 0-1.704.16-2.424.48-.72.32-1.312.768-1.776 1.344v-1.536h-2.952V157.8Zm6.768-7.392a3.569 3.569 0 0 1-1.872-.504 3.626 3.626 0 0 1-1.296-1.392c-.304-.592-.456-1.272-.456-2.04s.152-1.448.456-2.04a3.626 3.626 0 0 1 1.296-1.392 3.569 3.569 0 0 1 1.872-.504c.72 0 1.352.176 1.896.528.56.336 1 .8 1.32 1.392.32.592.48 1.264.48 2.016s-.16 1.432-.48 2.04a3.567 3.567 0 0 1-1.32 1.392c-.544.336-1.176.504-1.896.504Zm9.357 2.592h3.144v-7.656c0-.848.248-1.528.744-2.04s1.128-.768 1.896-.768 1.4.256 1.896.768c.496.496.744 1.176.744 2.04V153h3.144v-8.4c0-.976-.208-1.832-.624-2.568a4.396 4.396 0 0 0-1.752-1.752c-.736-.416-1.584-.624-2.544-.624-.752 0-1.432.136-2.04.408a3.312 3.312 0 0 0-1.464 1.176v-6.408h-3.144V153Zm15.576 5.304c1.232 0 2.256-.352 3.072-1.056.832-.688 1.496-1.664 1.992-2.928l5.688-14.376h-3.408l-3.36 9-3.384-9h-3.384L168.62 153l-.288.696c-.256.544-.552.984-.888 1.32-.32.336-.84.504-1.56.504-.256 0-.528-.024-.816-.072a4.7 4.7 0 0 1-.768-.144v2.64c.272.128.576.216.912.264.336.064.68.096 1.032.096Z"/></g><defs><clipPath id="a"><path fill="#fff" d="M0 0h354v182H0z"/></clipPath></defs></svg>