<svg xmlns="http://www.w3.org/2000/svg" width="354" height="158" fill="none"><g clip-path="url(#a)"><rect width="354" height="158" fill="#552049" rx="8"/><circle cx="282" cy="40" r="14" stroke="#F39E9E" stroke-width="4"/><circle cx="250" cy="40" r="14" stroke="#F39E9E" stroke-opacity=".5" stroke-width="4"/><circle cx="218" cy="40" r="14" stroke="#F39E9E" stroke-opacity=".25" stroke-width="4"/><circle cx="314" cy="40" r="14" stroke="#FFF7F0" stroke-width="4"/><path fill="#F39E9E" fill-rule="evenodd" d="m330 88-32-32v32h32Z" clip-rule="evenodd"/><rect width="64" height="32" x="234" y="56" fill="#F6A560" rx="16"/><path fill="#FFF7F0" fill-rule="evenodd" d="M206 70h-4v4h8v-4h-4Zm24 0h8v4h-8v-4Zm28 0h8v4h-8v-4Z" clip-rule="evenodd"/><path fill="#fff" d="M25.728 129h3.264v-12.384l5.544 7.584h.384l5.52-7.344V129h3.288v-17.88h-3.12l-5.808 8.064-5.952-8.064h-3.12V129Zm27.542.288c1.264 0 2.416-.288 3.456-.864A6.84 6.84 0 0 0 59.222 126c.624-1.04.936-2.216.936-3.528 0-1.312-.312-2.48-.936-3.504a6.655 6.655 0 0 0-2.472-2.424c-1.04-.592-2.2-.888-3.48-.888-1.296 0-2.464.296-3.504.888a6.84 6.84 0 0 0-2.496 2.424c-.608 1.024-.912 2.192-.912 3.504 0 1.312.304 2.48.912 3.504a6.84 6.84 0 0 0 2.496 2.424c1.056.592 2.224.888 3.504.888Zm0-2.88c-.704 0-1.336-.168-1.896-.504a3.626 3.626 0 0 1-1.296-1.392c-.304-.608-.456-1.288-.456-2.04s.152-1.424.456-2.016a3.626 3.626 0 0 1 1.296-1.392 3.488 3.488 0 0 1 1.896-.528c.704 0 1.32.176 1.848.528.544.336.968.8 1.272 1.392.32.592.48 1.264.48 2.016s-.16 1.432-.48 2.04a3.453 3.453 0 0 1-1.272 1.392c-.528.336-1.144.504-1.848.504Zm14.99 2.736c.528 0 1.048-.04 1.56-.12v-2.712a5.415 5.415 0 0 1-.84.072c-.768 0-1.328-.176-1.68-.528-.352-.352-.528-.856-.528-1.512v-5.592h3v-2.808h-3v-2.976h-3.144v1.008c0 .64-.176 1.128-.528 1.464-.352.336-.848.504-1.488.504h-.24v2.808h2.256v5.76c0 1.456.4 2.592 1.2 3.408.816.816 1.96 1.224 3.432 1.224Zm3.962-14.664h3.144v-3.36h-3.144v3.36Zm0 14.52h3.144v-13.056h-3.144V129Zm12.43.288c1.265 0 2.417-.288 3.457-.864A6.84 6.84 0 0 0 90.605 126c.624-1.04.936-2.216.936-3.528 0-1.312-.312-2.48-.936-3.504a6.655 6.655 0 0 0-2.472-2.424c-1.04-.592-2.2-.888-3.48-.888-1.296 0-2.464.296-3.504.888a6.84 6.84 0 0 0-2.496 2.424c-.608 1.024-.912 2.192-.912 3.504 0 1.312.304 2.48.912 3.504a6.84 6.84 0 0 0 2.496 2.424c1.056.592 2.224.888 3.504.888Zm0-2.88c-.703 0-1.335-.168-1.895-.504a3.626 3.626 0 0 1-1.296-1.392c-.304-.608-.456-1.288-.456-2.04s.152-1.424.456-2.016a3.626 3.626 0 0 1 1.296-1.392 3.488 3.488 0 0 1 1.896-.528c.704 0 1.32.176 1.848.528.544.336.968.8 1.272 1.392.32.592.48 1.264.48 2.016s-.16 1.432-.48 2.04a3.453 3.453 0 0 1-1.272 1.392c-.528.336-1.144.504-1.848.504ZM93.926 129h3.144v-7.656c0-.848.24-1.528.72-2.04.496-.512 1.136-.768 1.92-.768s1.416.256 1.896.768c.496.496.744 1.176.744 2.04V129h3.144v-8.4c0-.976-.208-1.832-.624-2.568a4.396 4.396 0 0 0-1.752-1.752c-.736-.416-1.584-.624-2.544-.624-.816 0-1.552.16-2.208.48-.64.32-1.136.792-1.488 1.416v-1.608h-2.952V129Zm27.228.288a9.12 9.12 0 0 0 3.072-.528 8.242 8.242 0 0 0 2.664-1.608c.8-.72 1.432-1.6 1.896-2.64.464-1.056.696-2.28.696-3.672v-1.8h-8.4v2.76h5.136v.072c0 .912-.232 1.704-.696 2.376a4.706 4.706 0 0 1-1.848 1.536 5.975 5.975 0 0 1-2.52.528c-1.12 0-2.112-.264-2.976-.792a5.594 5.594 0 0 1-2.04-2.184c-.48-.944-.72-2.04-.72-3.288 0-1.248.24-2.336.72-3.264.48-.944 1.144-1.672 1.992-2.184.848-.528 1.832-.792 2.952-.792 1.136 0 2.104.288 2.904.864a4.832 4.832 0 0 1 1.728 2.256l2.904-1.392c-.304-.848-.808-1.624-1.512-2.328-.704-.72-1.568-1.296-2.592-1.728-1.008-.432-2.152-.648-3.432-.648-1.28 0-2.464.232-3.552.696a8.229 8.229 0 0 0-2.832 1.92c-.8.816-1.424 1.792-1.872 2.928-.448 1.12-.672 2.344-.672 3.672 0 1.328.224 2.56.672 3.696a9.12 9.12 0 0 0 1.92 2.928 8.787 8.787 0 0 0 2.856 1.944c1.088.448 2.272.672 3.552.672ZM131.8 129h3.144v-7.272c0-.992.272-1.76.816-2.304.56-.56 1.28-.84 2.16-.84h1.128V115.8h-.768c-.8 0-1.504.144-2.112.432-.608.288-1.08.808-1.416 1.56v-1.848H131.8V129Zm12.937.288c1.696 0 3.056-.56 4.08-1.68V129h2.976v-8.688c0-.912-.232-1.72-.696-2.424-.464-.704-1.104-1.248-1.92-1.632-.8-.4-1.736-.6-2.809-.6-1.311 0-2.479.312-3.503.936-1.024.624-1.728 1.448-2.112 2.472l2.568 1.248a3.083 3.083 0 0 1 1.128-1.416c.512-.368 1.112-.552 1.8-.552.72 0 1.296.192 1.728.576.448.368.672.832.672 1.392v.432l-3.888.624c-1.536.256-2.672.744-3.408 1.464-.736.72-1.104 1.624-1.104 2.712 0 1.152.408 2.064 1.224 2.736.816.672 1.904 1.008 3.264 1.008Zm-1.224-3.864c0-.912.616-1.488 1.848-1.728l3.288-.552v.528c0 .896-.312 1.656-.936 2.28-.608.624-1.408.936-2.401.936-.527 0-.959-.128-1.295-.384-.336-.272-.504-.632-.504-1.08Zm11.185 8.376h3.144v-6.048c.48.496 1.064.88 1.752 1.152a6.35 6.35 0 0 0 2.232.384c1.264 0 2.392-.296 3.384-.888a6.641 6.641 0 0 0 2.352-2.448c.576-1.04.864-2.2.864-3.48 0-1.28-.288-2.432-.864-3.456a6.408 6.408 0 0 0-2.352-2.448c-.992-.608-2.112-.912-3.36-.912-.896 0-1.704.16-2.424.48-.72.32-1.312.768-1.776 1.344v-1.536h-2.952V133.8Zm6.768-7.392a3.569 3.569 0 0 1-1.872-.504 3.626 3.626 0 0 1-1.296-1.392c-.304-.592-.456-1.272-.456-2.04s.152-1.448.456-2.04a3.626 3.626 0 0 1 1.296-1.392 3.569 3.569 0 0 1 1.872-.504c.72 0 1.352.176 1.896.528.56.336 1 .8 1.32 1.392.32.592.48 1.264.48 2.016s-.16 1.432-.48 2.04a3.567 3.567 0 0 1-1.32 1.392c-.544.336-1.176.504-1.896.504Zm9.357 2.592h3.144v-7.656c0-.848.248-1.528.744-2.04s1.128-.768 1.896-.768 1.4.256 1.896.768c.496.496.744 1.176.744 2.04V129h3.144v-8.4c0-.976-.208-1.832-.624-2.568a4.396 4.396 0 0 0-1.752-1.752c-.736-.416-1.584-.624-2.544-.624-.752 0-1.432.136-2.04.408a3.312 3.312 0 0 0-1.464 1.176v-6.408h-3.144V129Zm14.227-14.52h3.144v-3.36h-3.144v3.36Zm0 14.52h3.144v-13.056h-3.144V129Zm12.335.288a6.98 6.98 0 0 0 2.616-.48 6.371 6.371 0 0 0 2.064-1.368 5.362 5.362 0 0 0 1.248-1.992l-2.76-1.248c-.256.688-.664 1.232-1.224 1.632-.544.384-1.192.576-1.944.576a3.445 3.445 0 0 1-1.848-.504 3.513 3.513 0 0 1-1.248-1.392c-.304-.608-.456-1.288-.456-2.04 0-.768.152-1.448.456-2.04a3.513 3.513 0 0 1 1.248-1.392 3.445 3.445 0 0 1 1.848-.504c.752 0 1.4.2 1.944.6.56.4.968.928 1.224 1.584l2.76-1.2a5.335 5.335 0 0 0-1.272-2.016 5.897 5.897 0 0 0-2.064-1.368c-.8-.32-1.664-.48-2.592-.48-1.296 0-2.464.296-3.504.888a6.526 6.526 0 0 0-2.424 2.424c-.592 1.024-.888 2.184-.888 3.48 0 1.296.296 2.464.888 3.504a6.71 6.71 0 0 0 2.424 2.448c1.04.592 2.208.888 3.504.888Zm13.281 0c.992 0 1.856-.168 2.592-.504.736-.336 1.312-.8 1.728-1.392.416-.608.624-1.304.624-2.088 0-.912-.288-1.696-.864-2.352-.576-.656-1.408-1.136-2.496-1.44l-2.088-.624c-.448-.128-.816-.296-1.104-.504a1.007 1.007 0 0 1-.432-.864c0-.384.152-.696.456-.936.304-.24.72-.36 1.248-.36a3.13 3.13 0 0 1 1.776.528c.544.352.92.824 1.128 1.416l2.4-1.128a4.879 4.879 0 0 0-2.016-2.472c-.944-.608-2.032-.912-3.264-.912-.944 0-1.784.168-2.52.504-.72.336-1.288.808-1.704 1.416-.4.592-.6 1.288-.6 2.088 0 .896.28 1.672.84 2.328.576.656 1.416 1.144 2.52 1.464l2.136.6c.416.112.768.28 1.056.504a.99.99 0 0 1 .456.864c0 .432-.176.776-.528 1.032-.336.24-.784.36-1.344.36-.736 0-1.4-.208-1.992-.624-.592-.416-1.064-.992-1.416-1.728l-2.352 1.128c.384 1.12 1.088 2.016 2.112 2.688 1.04.672 2.256 1.008 3.648 1.008Z"/></g><defs><clipPath id="a"><path fill="#fff" d="M0 0h354v158H0z"/></clipPath></defs></svg>